<?xml version="1.0" encoding="utf-8"?>
<!-- Generator: Adobe Illustrator 22.0.1, SVG Export Plug-In . SVG Version: 6.00 Build 0)  -->
<svg version="1.1" id="图层_1" xmlns="http://www.w3.org/2000/svg" xmlns:xlink="http://www.w3.org/1999/xlink" x="0px" y="0px"
	 viewBox="0 0 70 56" style="enable-background:new 0 0 70 56;" xml:space="preserve">
<style type="text/css">
	.st0{fill:#BDBDBD;}
</style>
<title>Group 20</title>
<desc>Created with Sketch.</desc>
<g id="Page-1">
	<g id="Group-20" transform="translate(2.000000, 1.000000)">
		<g id="Stroke-1">
			<path class="st0" d="M25.9,35.6h-2.3c-6.5,0-11.9-5.3-11.9-11.9V10.9C11.8,4.3,17.2-1,23.7-1h2.3c6.5,0,11.9,5.3,11.9,11.9v12.9
				C37.8,30.3,32.5,35.6,25.9,35.6z M23.7,2.8c-4.5,0-8.1,3.6-8.1,8.1v12.9c0,4.5,3.6,8.1,8.1,8.1h2.3c4.5,0,8.1-3.6,8.1-8.1V10.9
				c0-4.5-3.6-8.1-8.1-8.1H23.7z"/>
		</g>
		<g id="Stroke-3">
			<path class="st0" d="M49.6,54.1H0c-1,0-1.9-0.8-1.9-1.9v-4.4c-0.1-2.9,3.3-5.2,11.3-7.9c3.5-1.2,7-2.1,8.9-2.5V34
				c0-1,0.8-1.9,1.9-1.9s1.9,0.8,1.9,1.9v4.9c0,0.9-0.6,1.6-1.5,1.8c-9.3,2.1-18,5.4-18.8,7.2l0,2.5h47.7c1,0,1.9,0.8,1.9,1.9
				S50.7,54.1,49.6,54.1z M1.9,47.8L1.9,47.8C1.9,47.8,1.9,47.8,1.9,47.8z"/>
		</g>
		<g id="Stroke-5">
			<path class="st0" d="M49.6,54.1c-1,0-1.9-0.8-1.9-1.9v-4.4c-0.7-1.7-9.5-5.1-18.8-7.2c-1-0.2-1.7-1.2-1.4-2.2s1.2-1.7,2.2-1.4
				c0.2,0,5.2,1.2,10.4,2.9c8.1,2.7,11.4,5.1,11.3,8l0,4.4C51.5,53.3,50.7,54.1,49.6,54.1z M47.7,47.9L47.7,47.9L47.7,47.9z
				 M47.7,47.8C47.7,47.8,47.7,47.8,47.7,47.8L47.7,47.8z"/>
		</g>
		<g id="Stroke-7">
			<path class="st0" d="M66,7.5H46c-0.8,0-1.5-0.7-1.5-1.5s0.7-1.5,1.5-1.5h20c0.8,0,1.5,0.7,1.5,1.5S66.8,7.5,66,7.5z"/>
		</g>
		<g id="Stroke-9">
			<path class="st0" d="M66,19.5H46c-0.8,0-1.5-0.7-1.5-1.5s0.7-1.5,1.5-1.5h20c0.8,0,1.5,0.7,1.5,1.5S66.8,19.5,66,19.5z"/>
		</g>
		<g id="Stroke-11">
			<path class="st0" d="M66,31.5H46c-0.8,0-1.5-0.7-1.5-1.5s0.7-1.5,1.5-1.5h20c0.8,0,1.5,0.7,1.5,1.5S66.8,31.5,66,31.5z"/>
		</g>
	</g>
</g>
</svg>
