<?xml version="1.0" encoding="utf-8"?>
<!-- Generator: Adobe Illustrator 22.0.1, SVG Export Plug-In . SVG Version: 6.00 Build 0)  -->
<svg version="1.1" id="图层_1" xmlns="http://www.w3.org/2000/svg" xmlns:xlink="http://www.w3.org/1999/xlink" x="0px" y="0px"
	 viewBox="0 0 63 64" style="enable-background:new 0 0 63 64;" xml:space="preserve">
<style type="text/css">
	.st0{fill:#BDBDBD;}
</style>
<title>Group 27</title>
<desc>Created with Sketch.</desc>
<g id="Page-1">
	<g id="Group-27" transform="translate(1.000000, 1.000000)">
		<g id="Stroke-1">
			<path class="st0" d="M29.7,62.4c-7.1,0-14-2.5-19.5-7C3.1,49.5-1,40.9-1,31.7C-1,14.8,12.8,1,29.7,1c1,0,1.9,0.8,1.9,1.9v26.9
				h26.9c1,0,1.9,0.8,1.9,1.9C60.4,48.6,46.6,62.4,29.7,62.4z M27.8,4.8c-14,1-25.1,12.6-25.1,26.9c0,8.1,3.6,15.7,9.8,20.8
				c4.8,4,10.9,6.1,17.1,6.1c14.2,0,25.9-11.1,26.9-25.1H29.7c-1,0-1.9-0.8-1.9-1.9V4.8z"/>
		</g>
		<g id="Stroke-3">
			<path class="st0" d="M60.3,26.1H36.2c-0.8,0-1.5-0.7-1.5-1.5V0.5c0-0.8,0.7-1.5,1.5-1.5c14.1,0,25.6,11.5,25.6,25.6
				C61.8,25.5,61.1,26.1,60.3,26.1z M37.7,23.1h21.1C58,11.8,48.9,2.8,37.7,2V23.1z"/>
		</g>
	</g>
</g>
</svg>
