<?xml version="1.0" encoding="utf-8"?>
<!-- Generator: Adobe Illustrator 22.0.1, SVG Export Plug-In . SVG Version: 6.00 Build 0)  -->
<svg version="1.1" id="图层_1" xmlns="http://www.w3.org/2000/svg" xmlns:xlink="http://www.w3.org/1999/xlink" x="0px" y="0px"
	 viewBox="0 0 49 64" style="enable-background:new 0 0 49 64;" xml:space="preserve">
<style type="text/css">
	.st0{fill:#BDBDBD;}
</style>
<title>Group 26</title>
<desc>Created with Sketch.</desc>
<g id="Stroke-1">
	<path class="st0" d="M46.5,63.7H1.9c-1,0-1.9-0.8-1.9-1.9v-60C0,0.8,0.8,0,1.9,0h19.9c0.5,0,1,0.2,1.3,0.5c0.4,0.4,0.5,0.8,0.5,1.3
		l0,13.7c0,1-0.8,1.9-1.9,1.9h-9.3c-1,0-1.9-0.8-1.9-1.9V3.7H3.8V60h40.8V3.7H29.4c-1,0-1.9-0.8-1.9-1.9S28.4,0,29.4,0h17.1
		c1,0,1.9,0.8,1.9,1.9v60C48.3,62.9,47.5,63.7,46.5,63.7z M14.3,13.7h5.5l0-10h-5.6V13.7z"/>
</g>
<g id="Stroke-3">
	<path class="st0" d="M37.6,28.8H11.3c-0.8,0-1.5-0.7-1.5-1.5s0.7-1.5,1.5-1.5h26.3c0.8,0,1.5,0.7,1.5,1.5S38.4,28.8,37.6,28.8z"/>
</g>
<g id="Stroke-4">
	<path class="st0" d="M31.5,37.1h-14c-0.8,0-1.5-0.7-1.5-1.5s0.7-1.5,1.5-1.5h14c0.8,0,1.5,0.7,1.5,1.5S32.3,37.1,31.5,37.1z"/>
</g>
</svg>
