<?xml version="1.0" encoding="utf-8"?>
<!-- Generator: Adobe Illustrator 22.0.1, SVG Export Plug-In . SVG Version: 6.00 Build 0)  -->
<svg version="1.1" id="图层_1" xmlns="http://www.w3.org/2000/svg" xmlns:xlink="http://www.w3.org/1999/xlink" x="0px" y="0px"
	 viewBox="0 0 64 56" style="enable-background:new 0 0 64 56;" xml:space="preserve">
<style type="text/css">
	.st0{fill:#BDBDBD;}
</style>
<title>Group 25</title>
<desc>Created with Sketch.</desc>
<g id="Page-1">
	<g id="Group-25" transform="translate(1.000000, 1.000000)">
		<g id="Stroke-1">
			<path class="st0" d="M36.9,35.6h-2.3c-6.5,0-11.9-5.3-11.9-11.9V10.9C22.8,4.3,28.2-1,34.7-1h2.3c6.5,0,11.9,5.3,11.9,11.9v12.9
				C48.8,30.3,43.5,35.6,36.9,35.6z M34.7,2.8c-4.5,0-8.1,3.6-8.1,8.1v12.9c0,4.5,3.6,8.1,8.1,8.1h2.3c4.5,0,8.1-3.6,8.1-8.1V10.9
				c0-4.5-3.6-8.1-8.1-8.1H34.7z"/>
		</g>
		<g id="Stroke-3">
			<path class="st0" d="M60.6,54.1H11c-1,0-1.9-0.8-1.9-1.9v-4.4c-0.1-2.9,3.3-5.2,11.3-7.9c3.5-1.2,7-2.1,8.9-2.5V34
				c0-1,0.8-1.9,1.9-1.9c1,0,1.9,0.8,1.9,1.9v4.9c0,0.9-0.6,1.6-1.5,1.8c-9.3,2.1-18,5.4-18.8,7.2l0,2.5h47.7c1,0,1.9,0.8,1.9,1.9
				S61.7,54.1,60.6,54.1z M12.9,47.8L12.9,47.8C12.9,47.8,12.9,47.8,12.9,47.8z"/>
		</g>
		<g id="Stroke-5">
			<path class="st0" d="M60.6,54.1c-1,0-1.9-0.8-1.9-1.9v-4.4c-0.7-1.7-9.5-5.1-18.8-7.2c-1-0.2-1.7-1.2-1.4-2.2s1.2-1.7,2.2-1.4
				c0.2,0,5.2,1.2,10.4,2.9c8.1,2.7,11.4,5.1,11.3,8l0,4.4C62.5,53.3,61.7,54.1,60.6,54.1z M58.7,47.9L58.7,47.9L58.7,47.9z
				 M58.7,47.8C58.7,47.8,58.7,47.8,58.7,47.8L58.7,47.8z"/>
		</g>
		<g id="Stroke-7">
			<path class="st0" d="M21.4,34.4h-1.8c-5.3,0-9.6-4.3-9.6-9.6V14.5c0-5.3,4.3-9.6,9.6-9.6h1.8c0.9,0,1.6,0.7,1.6,1.6
				s-0.7,1.6-1.6,1.6h-1.8c-3.5,0-6.4,2.9-6.4,6.4v10.3c0,3.5,2.9,6.4,6.4,6.4h1.8c0.9,0,1.6,0.7,1.6,1.6
				C23,33.7,22.2,34.4,21.4,34.4z"/>
		</g>
		<g id="Stroke-9">
			<path class="st0" d="M0.6,54C-0.3,54-1,53.2-1,52.3v-8.3c-0.1-3.8,8.5-6.6,16.2-8.5V33c0-0.9,0.7-1.6,1.6-1.6s1.6,0.7,1.6,1.6
				v3.9c0,0.8-0.5,1.4-1.3,1.6c-7.3,1.6-14.2,4.3-14.9,5.7l0,8.2C2.2,53.2,1.5,54,0.6,54z M2.2,44L2.2,44C2.2,44,2.2,44,2.2,44z"/>
		</g>
	</g>
</g>
</svg>
